<svg width="18" height="22" viewBox="0 0 18 22" fill="none" xmlns="http://www.w3.org/2000/svg">
<path d="M16.2 8.46668C16.2 12.9111 11.1333 18.7778 9.26668 20.7333C8.91112 21.0889 8.2889 21.0889 7.93335 20.7333C6.06668 18.7778 1 12.9111 1 8.46668C1 4.28891 4.3778 1 8.55558 1C12.7334 1 16.2 4.3778 16.2 8.46668Z" stroke="#4962E0" stroke-width="2" stroke-miterlimit="10" stroke-linecap="round" stroke-linejoin="round"/>
<path d="M8.64467 12.1999C10.6083 12.1999 12.2002 10.6081 12.2002 8.64439C12.2002 6.68072 10.6083 5.08887 8.64467 5.08887C6.68099 5.08887 5.08911 6.68072 5.08911 8.64439C5.08911 10.6081 6.68099 12.1999 8.64467 12.1999Z" stroke="#4962E0" stroke-width="2" stroke-miterlimit="10" stroke-linecap="round" stroke-linejoin="round"/>
</svg>